<svg xmlns="http://www.w3.org/2000/svg"  viewBox="0 0 48 48" width="96px" height="96px"><path fill="#4caf50" d="M40 21H44V43H40zM34 27H38V43H34zM28 30H32V43H28zM22 32H26V43H22zM16 36H20V43H16zM10 39H14V43H10zM4 41H8V43H4z"/><path fill="#388e3c" d="M44 9L35 9 44 18z"/><path fill="#ffc107" d="M11,5c-3.86,0-7,3.14-7,7s3.14,7,7,7s7-3.14,7-7S14.86,5,11,5z"/><path fill="#fff8e1" d="M11.994,15.974h-1.553V9.893l-1.853,0.581V9.206l3.24-1.18h0.166V15.974z"/><path fill="#388e3c" d="M6.914 36.914L4.086 34.086 14 24.172 17 27.172 27.5 16.672 30.5 19.672 39.586 10.586 42.414 13.414 30.5 25.328 27.5 22.328 17 32.828 14 29.828z"/></svg>