<svg xmlns="http://www.w3.org/2000/svg"  viewBox="0 0 24 24" width="24px" height="24px"><path d="M 12 1.25 C 6.067 1.25 1.25 6.067 1.25 12 C 1.25 17.933 6.067 22.75 12 22.75 C 17.933 22.75 22.75 17.933 22.75 12 C 22.75 6.067 17.933 1.25 12 1.25 z M 12 2.75 C 17.105 2.75 21.25 6.895 21.25 12 C 21.25 17.105 17.105 21.25 12 21.25 C 6.895 21.25 2.75 17.105 2.75 12 C 2.75 6.895 6.895 2.75 12 2.75 z M 6.796875 7.2519531 C 6.5052656 7.2334844 6.216875 7.3858125 6.078125 7.6640625 C 5.893125 8.0340625 6.0430625 8.486875 6.4140625 8.671875 L 8.0722656 9.5 L 6.4140625 10.328125 C 6.0430625 10.513125 5.893125 10.965937 6.078125 11.335938 C 6.263125 11.706938 6.7159375 11.856875 7.0859375 11.671875 L 10.085938 10.171875 C 10.339937 10.044875 10.5 9.784 10.5 9.5 C 10.5 9.216 10.339937 8.955125 10.085938 8.828125 L 7.0859375 7.328125 C 6.9934375 7.281875 6.8940781 7.2581094 6.796875 7.2519531 z M 17.203125 7.2519531 C 17.105922 7.2581094 17.006562 7.281875 16.914062 7.328125 L 13.914062 8.828125 C 13.660063 8.955125 13.5 9.216 13.5 9.5 C 13.5 9.784 13.660063 10.044875 13.914062 10.171875 L 16.914062 11.671875 C 17.284063 11.856875 17.736875 11.706937 17.921875 11.335938 C 18.106875 10.965938 17.956938 10.513125 17.585938 10.328125 L 15.927734 9.5 L 17.585938 8.671875 C 17.956937 8.486875 18.106875 8.0340625 17.921875 7.6640625 C 17.783125 7.3858125 17.494734 7.2334844 17.203125 7.2519531 z M 15.888672 13.25 C 13.963672 13.25 10.029516 13.250625 8.1035156 13.265625 C 7.5735156 13.265625 7.0682344 13.5135 6.7402344 13.9375 C 6.4112344 14.3605 6.2966875 14.912641 6.4296875 15.431641 C 7.0666875 17.913641 9.321 19.75 12 19.75 C 14.677 19.75 16.929984 17.915453 17.583984 15.439453 C 17.584984 15.438453 17.584937 15.437547 17.585938 15.435547 C 17.719938 14.911547 17.605437 14.354734 17.273438 13.927734 C 16.941437 13.499734 16.429672 13.25 15.888672 13.25 z M 15.890625 14.75 C 15.968625 14.75 16.040891 14.786656 16.087891 14.847656 C 16.134891 14.907656 16.151766 14.984594 16.134766 15.058594 C 15.647766 16.892594 13.981 18.25 12 18.25 C 10.02 18.25 8.3538125 16.893594 7.8828125 15.058594 C 7.8648125 14.988594 7.8807813 14.912469 7.9257812 14.855469 C 7.9697812 14.798469 8.037375 14.765625 8.109375 14.765625 L 8.1152344 14.765625 C 10.038234 14.750625 13.967625 14.75 15.890625 14.75 z"/></svg>