<svg xmlns="http://www.w3.org/2000/svg"  viewBox="0 0 48 48" width="480px" height="480px"><path fill="#8bc34a" d="M28.2,16.7c-0.2,0-0.4-0.1-0.6-0.2c-0.4-0.3-0.5-1-0.2-1.4l5.5-6.9c0.3-0.4,1-0.5,1.4-0.2 c0.4,0.3,0.5,1,0.2,1.4l-5.5,6.9C28.7,16.6,28.4,16.7,28.2,16.7z"/><path fill="#8bc34a" d="M36.5 8.8c0 1.5-1.2 2.8-2.8 2.8-1.5 0-2.8-1.2-2.8-2.8 0-1.5 1.2-2.8 2.8-2.8C35.2 6 36.5 7.2 36.5 8.8zM33.7 40.2c-.3 0-.6-.1-.8-.4l-5.5-6.9c-.3-.4-.3-1.1.2-1.4.4-.3 1.1-.3 1.4.2l5.5 6.9c.3.4.3 1.1-.2 1.4C34.1 40.2 33.9 40.2 33.7 40.2z"/><path fill="#8bc34a" d="M36.5 39.2c0 1.5-1.2 2.8-2.8 2.8s-2.8-1.2-2.8-2.8 1.2-2.8 2.8-2.8S36.5 37.7 36.5 39.2zM30.9 32.3c0 1.5-1.2 2.8-2.8 2.8-1.5 0-2.8-1.2-2.8-2.8 0-1.5 1.2-2.8 2.8-2.8C29.7 29.5 30.9 30.8 30.9 32.3z"/><path fill="#8bc34a" d="M28.8,31.3h-6.4c0.1,0.3,0.2,0.6,0.2,1s-0.1,0.7-0.2,1h6.4c0.6,0,1-0.4,1-1 C29.8,31.8,29.4,31.3,28.8,31.3z"/><path fill="#3f51b5" d="M33.7,25c-0.3,0-0.7-0.2-0.9-0.5L28,16.2c-0.3-0.5-0.1-1.1,0.4-1.4c0.5-0.3,1.1-0.1,1.4,0.4l4.8,8.3 c0.3,0.5,0.1,1.1-0.4,1.4C34,25,33.9,25,33.7,25z"/><path fill="#3f51b5" d="M28.8 16.7h-9.2c-.6 0-1-.4-1-1s.4-1 1-1h9.2c.6 0 1 .4 1 1S29.4 16.7 28.8 16.7zM22.6 32.3c0 1.5-1.2 2.8-2.8 2.8-1.5 0-2.8-1.2-2.8-2.8 0-1.5 1.2-2.8 2.8-2.8C21.4 29.5 22.6 30.8 22.6 32.3z"/><path fill="#3f51b5" d="M30.9 15.7c0 1.5-1.2 2.8-2.8 2.8-1.5 0-2.8-1.2-2.8-2.8 0-1.5 1.2-2.8 2.8-2.8C29.7 12.9 30.9 14.2 30.9 15.7zM14.3 25c-.3 0-.6-.1-.8-.4L8 17.7c-.3-.4-.3-1.1.2-1.4.4-.3 1.1-.3 1.4.2l5.5 6.9c.3.4.3 1.1-.2 1.4C14.8 24.9 14.6 25 14.3 25z"/><path fill="#3f51b5" d="M11.6 17.1c0 1.5-1.2 2.8-2.8 2.8-1.5 0-2.8-1.2-2.8-2.8 0-1.5 1.2-2.8 2.8-2.8C10.3 14.3 11.6 15.5 11.6 17.1zM14.3 40.2c-.2 0-.4-.1-.6-.2-.4-.3-.5-1-.2-1.4l5.5-6.9c.3-.4 1-.5 1.4-.2.4.3.5 1 .2 1.4l-5.5 6.9C14.9 40.1 14.6 40.2 14.3 40.2z"/><path fill="#3f51b5" d="M17.1,39.2c0,1.5-1.2,2.8-2.8,2.8c-1.5,0-2.8-1.2-2.8-2.8c0-1.5,1.2-2.8,2.8-2.8 C15.9,36.4,17.1,37.7,17.1,39.2z"/><path fill="#ff1744" d="M14.3,25c-0.4,0-0.7-0.2-0.9-0.6v0c-0.2-0.3-0.1-0.7,0-0.9l4.8-8.3c0.2-0.3,0.5-0.5,0.9-0.5h0.5 c0.6,0,1,0.4,1,1c0,0.5-0.4,1-1,1l-4.5,7.8c-0.1,0.2-0.2,0.3-0.4,0.4C14.6,25,14.5,25,14.3,25z"/><path fill="#ff1744" d="M22.6 15.7c0 1.5-1.2 2.8-2.8 2.8-1.5 0-2.8-1.2-2.8-2.8 0-1.5 1.2-2.8 2.8-2.8C21.4 12.9 22.6 14.2 22.6 15.7zM36.5 24c0 1.5-1.2 2.8-2.8 2.8-1.5 0-2.8-1.2-2.8-2.8s1.2-2.8 2.8-2.8C35.2 21.2 36.5 22.5 36.5 24z"/><path fill="#ff1744" d="M33.7,25c-0.3,0-0.6-0.1-0.8-0.4c-0.3-0.4-0.2-1.1,0.2-1.4l5.5-4.2c0.4-0.3,1.1-0.2,1.4,0.2 c0.3,0.4,0.2,1.1-0.2,1.4l-5.5,4.2C34.1,24.9,33.9,25,33.7,25z"/><path fill="#ff1744" d="M42 19.8c0 1.5-1.2 2.8-2.8 2.8-1.5 0-2.8-1.2-2.8-2.8 0-1.5 1.2-2.8 2.8-2.8C40.8 17.1 42 18.3 42 19.8zM17.1 24c0 1.5-1.2 2.8-2.8 2.8-1.5 0-2.8-1.2-2.8-2.8s1.2-2.8 2.8-2.8C15.8 21.2 17.1 22.5 17.1 24zM34.2 23.1c-.5-.3-1.1-.1-1.4.4l-3.6 6.2c.7.3 1.2.8 1.5 1.4l3.9-6.7C34.8 24 34.7 23.4 34.2 23.1z"/><path fill="#ff1744" d="M18.8,29.7l-3.6-6.2c-0.3-0.5-0.9-0.6-1.4-0.4c-0.5,0.3-0.6,0.9-0.4,1.4l3.9,6.7 C17.6,30.5,18.2,30,18.8,29.7z"/></svg>