<svg xmlns="http://www.w3.org/2000/svg"  viewBox="0 0 48 48" width="48px" height="48px"><path fill="#cfd8dc" d="M7.5 39.9L6.5 38.1 23 28.4 23 9 25 9 25 29.6z"/><path fill="#cfd8dc" d="M31.5 24.1H33.5V43.8H31.5z" transform="rotate(-59.534 32.501 34.001)"/><path fill="#cfd8dc" d="M42.7,40H5.3L24,7L42.7,40z M8.7,38h30.6L24,11L8.7,38z"/><path fill="#f50057" d="M24 6A3 3 0 1 0 24 12 3 3 0 1 0 24 6zM24 26A3 3 0 1 0 24 32 3 3 0 1 0 24 26zM41 36A3 3 0 1 0 41 42 3 3 0 1 0 41 36zM7 36A3 3 0 1 0 7 42 3 3 0 1 0 7 36z"/></svg>