<svg xmlns="http://www.w3.org/2000/svg"  viewBox="0 0 48 48" width="240px" height="240px"><linearGradient id="SVGID_1_" x1="37.231" x2="10.769" y1="10.769" y2="37.231" gradientUnits="userSpaceOnUse"><stop offset="0" stop-color="#60e8fe"/><stop offset=".033" stop-color="#6ae9fe"/><stop offset=".197" stop-color="#97f0fe"/><stop offset=".362" stop-color="#bdf5ff"/><stop offset=".525" stop-color="#dafaff"/><stop offset=".687" stop-color="#eefdff"/><stop offset=".846" stop-color="#fbfeff"/><stop offset="1" stop-color="#fff"/></linearGradient><path fill="url(#SVGID_1_)" d="M43.061,24c0-2.208-4.298-4.116-10.557-5.051l0.298-0.1c2.232-5.754,2.721-10.345,0.912-11.548	c-1.902-1.266-5.826,1.577-9.883,6.739l0.077-0.342c-3.963-4.952-7.76-7.635-9.621-6.397c-1.818,1.21-1.311,5.846,0.952,11.645	C9.127,19.88,4.939,21.793,4.939,24c0,2.228,4.277,4.15,10.483,5.076l-0.224,0.076c-2.232,5.754-2.721,10.345-0.912,11.548	c1.902,1.266,5.826-1.577,9.883-6.738l-0.077,0.342c3.963,4.952,7.76,7.635,9.621,6.397c1.87-1.244,1.273-6.117-1.156-12.146	l0.482,0.42C39.011,28.012,43.061,26.145,43.061,24z"/><path fill="none" stroke="#10cfe3" stroke-linecap="round" stroke-linejoin="round" stroke-miterlimit="10" stroke-width="3" d="M25.999,18.537C35.289,18.855,42.5,21.18,42.5,24c0,2.082-3.93,3.894-9.726,4.828"/><path fill="none" stroke="#10cfe3" stroke-linecap="round" stroke-linejoin="round" stroke-miterlimit="10" stroke-width="3" d="M27,29.413c-1.055,0.057-2.141,0.087-3.25,0.087C13.671,29.5,5.5,27.038,5.5,24	c0-1.336,1.581-2.561,4.211-3.514"/><path fill="none" stroke="#10cfe3" stroke-linecap="round" stroke-linejoin="round" stroke-miterlimit="10" stroke-width="3" d="M24.09,34c3.847,4.806,7.532,7.41,9.338,6.208c2.549-1.696,0.395-10.328-4.812-19.279	c-0.384-0.66-0.774-1.304-1.168-1.929"/><path fill="none" stroke="#10cfe3" stroke-linecap="round" stroke-linejoin="round" stroke-miterlimit="10" stroke-width="3" d="M23.91,14c-3.847-4.806-7.531-7.41-9.338-6.208c-2.549,1.696-0.395,10.328,4.812,19.279	c0.384,0.66,0.774,1.304,1.168,1.929"/><path fill="none" stroke="#10cfe3" stroke-linecap="round" stroke-linejoin="round" stroke-miterlimit="10" stroke-width="3" d="M34.278,13.083c-0.297,1.712-0.886,3.728-1.735,5.917"/><path fill="none" stroke="#10cfe3" stroke-linecap="round" stroke-linejoin="round" stroke-miterlimit="10" stroke-width="3" d="M17.709,24c0.516-1.013,1.076-2.039,1.675-3.071c5.207-8.952,11.495-14.834,14.044-13.138"/><path fill="none" stroke="#10cfe3" stroke-linecap="round" stroke-linejoin="round" stroke-miterlimit="10" stroke-width="3" d="M30.291,24c-0.516,1.013-1.076,2.039-1.675,3.071c-5.207,8.952-11.495,14.834-14.044,13.138	c-1.111-0.739-1.329-2.796-0.789-5.623"/><circle cx="24" cy="24" r="2" fill="#10cfe3"/></svg>