<svg xmlns="http://www.w3.org/2000/svg"  viewBox="0 0 48 48" width="144px" height="144px"><polygon fill="#039be5" points="41,13.667 24,23.333 24,44 41,33.444"/><polygon fill="#81d4fa" points="24,23.333 7,13.667 7,33.444 24,44"/><polygon fill="#81d4fa" points="24,23.333 7,13.667 24,4 41,13.667"/><polygon fill="#b3e5fc" points="33,18.216 24,13 24,4 41,13.667"/><polygon fill="#0288d1" points="41,13.667 24,23.333 33,30.444 41,33.444"/><polygon fill="#29b6f6" points="24,23.333 7,13.667 7,33.444 24,44"/><polygon fill="#4fc3f7" points="24,23.333 7,13.667 7,33.444 15,30.444"/><polygon fill="#ec407a" points="15,30.444 24,36.033 24,23.333 15,18.216"/><polygon fill="#d81b60" points="33,30.444 24,36.033 24,23.333 33,18.216"/><polygon fill="#f06292" points="14.914,18.167 24,23.333 33.086,18.167 24,13"/></svg>