<svg xmlns="http://www.w3.org/2000/svg"  viewBox="0 0 24 24" width="24px" height="24px"><path d="M 12 2 C 6.4886661 2 2 6.4886661 2 12 C 2 17.511334 6.4886661 22 12 22 C 17.511334 22 22 17.511334 22 12 C 22 6.4886661 17.511334 2 12 2 z M 12 4 C 16.430666 4 20 7.5693339 20 12 C 20 16.430666 16.430666 20 12 20 C 7.5693339 20 4 16.430666 4 12 C 4 7.5693339 7.5693339 4 12 4 z M 8.5 7 A 1.5 2 0 0 0 7 9 A 1.5 2 0 0 0 8.5 11 A 1.5 2 0 0 0 10 9 A 1.5 2 0 0 0 8.5 7 z M 15.5 7 A 1.5 2 0 0 0 14 9 A 1.5 2 0 0 0 15.5 11 A 1.5 2 0 0 0 17 9 A 1.5 2 0 0 0 15.5 7 z M 12 13 C 10.895 13 10 13.619 10 15 C 10 16.381 10.895 18 12 18 C 13.105 18 14 16.381 14 15 C 14 13.619 13.105 13 12 13 z"/></svg>